<svg width="256" height="64" viewBox="0 0 256 64" fill="none" xmlns="http://www.w3.org/2000/svg">
  <rect x="2" y="2" width="60" height="60" rx="18" fill="#0B1020"/>
  <rect x="2" y="2" width="60" height="60" rx="18" stroke="#7CF3C8" stroke-opacity="0.36" stroke-width="2"/>
  <circle cx="32" cy="32" r="16" stroke="#7CF3C8" stroke-width="10"/>
  <path d="M88 20H112C123.046 20 132 28.9543 132 40C132 51.0457 123.046 60 112 60H88V20ZM103 33V47H111C114.314 47 117 44.3137 117 41C117 37.6863 114.314 35 111 35H103V33Z" fill="#F3F6FF"/>
  <path d="M161.241 61C148.218 61 139.273 52.7782 138.41 40.9822H151.129C151.96 46.0741 155.728 49.1365 161.241 49.1365C166.243 49.1365 169.724 46.7137 169.724 42.9512C169.724 39.6986 167.069 37.9074 160.265 36.3796L154.934 35.1701C144.817 32.9691 140.454 27.9405 140.454 19.9089C140.454 9.22801 149.567 2 161.888 2C174.368 2 183.098 9.48153 183.545 20.0033H171.049C170.314 15.1972 166.979 12.4517 161.697 12.4517C156.542 12.4517 153.08 14.9384 153.08 18.7647C153.08 21.8901 155.703 23.6812 161.888 25.0181L167.219 26.1646C178.102 28.5564 182.286 33.1088 182.286 41.2996C182.286 52.3936 173.715 61 161.241 61Z" fill="#F3F6FF"/>
  <path d="M218.251 61C201.88 61 190.486 48.5004 190.486 31.5C190.486 14.4996 201.88 2 218.251 2C234.622 2 246.016 14.4996 246.016 31.5C246.016 48.5004 234.622 61 218.251 61ZM218.251 49.2009C226.746 49.2009 233.099 41.7151 233.099 31.5C233.099 21.2849 226.746 13.7991 218.251 13.7991C209.756 13.7991 203.403 21.2849 203.403 31.5C203.403 41.7151 209.756 49.2009 218.251 49.2009Z" fill="#F3F6FF"/>
</svg>
