<svg width="64" height="64" viewBox="0 0 64 64" fill="none" xmlns="http://www.w3.org/2000/svg">
  <rect width="64" height="64" rx="32" fill="#B22234"/>
  <mask id="us-mask" maskUnits="userSpaceOnUse" x="0" y="0" width="64" height="64">
    <rect width="64" height="64" rx="32" fill="white"/>
  </mask>
  <g mask="url(#us-mask)">
    <rect width="64" height="64" fill="#B22234"/>
    <rect y="4.92" width="64" height="4.92" fill="white"/>
    <rect y="14.77" width="64" height="4.92" fill="white"/>
    <rect y="24.62" width="64" height="4.92" fill="white"/>
    <rect y="34.46" width="64" height="4.92" fill="white"/>
    <rect y="44.31" width="64" height="4.92" fill="white"/>
    <rect y="54.15" width="64" height="4.92" fill="white"/>
    <rect width="30.5" height="34.46" fill="#3C3B6E"/>
    <g fill="white">
      <circle cx="5.1" cy="5.75" r="1.1"/>
      <circle cx="12.2" cy="5.75" r="1.1"/>
      <circle cx="19.3" cy="5.75" r="1.1"/>
      <circle cx="26.4" cy="5.75" r="1.1"/>
      <circle cx="8.65" cy="11.5" r="1.1"/>
      <circle cx="15.75" cy="11.5" r="1.1"/>
      <circle cx="22.85" cy="11.5" r="1.1"/>
      <circle cx="5.1" cy="17.25" r="1.1"/>
      <circle cx="12.2" cy="17.25" r="1.1"/>
      <circle cx="19.3" cy="17.25" r="1.1"/>
      <circle cx="26.4" cy="17.25" r="1.1"/>
      <circle cx="8.65" cy="23" r="1.1"/>
      <circle cx="15.75" cy="23" r="1.1"/>
      <circle cx="22.85" cy="23" r="1.1"/>
      <circle cx="5.1" cy="28.75" r="1.1"/>
      <circle cx="12.2" cy="28.75" r="1.1"/>
      <circle cx="19.3" cy="28.75" r="1.1"/>
      <circle cx="26.4" cy="28.75" r="1.1"/>
    </g>
  </g>
</svg>
